<?xml version="1.0"?>
<svg fill="#e84d3d" stroke="none" id="Layer_1" xmlns="http://www.w3.org/2000/svg" version="1.1" viewBox="0 0 159.4 189.5">
  
  <defs>
    
  </defs>
  <path class="st0" d="M79.7,166.9C35.8,166.9,0,131.1,0,87.2S29.4,13.8,68.3,8.3c1.3-.2,2.5.7,2.7,2.1.2,1.3-.7,2.5-2.1,2.7C32.4,18.3,4.8,50.1,4.8,87.2s33.6,74.9,74.9,74.9,74.9-33.6,74.9-74.9S127,18.3,90.4,13.1c-1.3-.2-2.2-1.4-2.1-2.7.2-1.3,1.4-2.2,2.7-2.1,39,5.5,68.4,39.4,68.4,78.9s-35.8,79.7-79.7,79.7Z"></path>
  <path class="st0" d="M79.7,154.6c-37.2,0-67.5-30.3-67.5-67.5S35.8,26.2,68.3,20.7c1.3-.2,2.6.7,2.8,2,.2,1.3-.7,2.6-2,2.8-30.2,5.1-52,31.1-52,61.7s28.1,62.6,62.6,62.6,62.6-28.1,62.6-62.6-21.9-56.6-52.1-61.7c-1.3-.2-2.2-1.5-2-2.8.2-1.3,1.5-2.2,2.8-2,32.5,5.5,56.1,33.5,56.1,66.5s-30.3,67.5-67.5,67.5Z"></path>
  <g>
    <path class="st0" d="M79.7,100.5c-7.3,0-13.3-6-13.3-13.3s6-13.3,13.3-13.3,13.3,6,13.3,13.3-6,13.3-13.3,13.3ZM79.7,78.7c-4.7,0-8.5,3.8-8.5,8.5s3.8,8.5,8.5,8.5,8.5-3.8,8.5-8.5-3.8-8.5-8.5-8.5Z"></path>
    <path class="st0" d="M139.6,114.4c-.3,0-.6,0-.9-.2l-49.6-20.5c-1.2-.5-1.8-1.9-1.3-3.2.5-1.2,1.9-1.8,3.2-1.3l49.6,20.5c1.2.5,1.8,1.9,1.3,3.2-.4.9-1.3,1.5-2.2,1.5Z"></path>
    <path class="st0" d="M69.4,85.3c-.3,0-.6,0-.9-.2l-49.6-20.5c-1.2-.5-1.8-1.9-1.3-3.2.5-1.2,1.9-1.8,3.2-1.3l49.6,20.5c1.2.5,1.8,1.9,1.3,3.2-.4.9-1.3,1.5-2.2,1.5Z"></path>
    <path class="st0" d="M90,85.3c-.9,0-1.8-.6-2.2-1.5-.5-1.2,0-2.6,1.3-3.2l49.6-20.5c1.2-.5,2.6,0,3.2,1.3s0,2.6-1.3,3.2l-49.6,20.5c-.3.1-.6.2-.9.2Z"></path>
    <path class="st0" d="M19.8,114.4c-.9,0-1.8-.6-2.2-1.5-.5-1.2,0-2.6,1.3-3.2l49.6-20.5c1.2-.5,2.6,0,3.2,1.3.5,1.2,0,2.6-1.3,3.2l-49.6,20.5c-.3.1-.6.2-.9.2Z"></path>
    <path class="st0" d="M84,79.3c-.3,0-.6,0-.9-.2-1.2-.5-1.8-1.9-1.3-3.2l20.5-49.6c.5-1.2,1.9-1.8,3.2-1.3,1.2.5,1.8,1.9,1.3,3.2l-20.5,49.6c-.4.9-1.3,1.5-2.2,1.5Z"></path>
    <path class="st0" d="M54.9,149.5c-.3,0-.6,0-.9-.2-1.2-.5-1.8-1.9-1.3-3.2l20.5-49.6c.5-1.2,1.9-1.8,3.2-1.3,1.2.5,1.8,1.9,1.3,3.2l-20.5,49.6c-.4.9-1.3,1.5-2.2,1.5Z"></path>
    <path class="st0" d="M75.4,79.3c-.9,0-1.8-.6-2.2-1.5l-20.5-49.6c-.5-1.2,0-2.6,1.3-3.2,1.2-.5,2.6,0,3.2,1.3l20.5,49.6c.5,1.2,0,2.6-1.3,3.2-.3.1-.6.2-.9.2Z"></path>
    <path class="st0" d="M104.5,149.5c-.9,0-1.8-.6-2.2-1.5l-20.5-49.6c-.5-1.2,0-2.6,1.3-3.2,1.2-.5,2.6,0,3.2,1.3l20.5,49.6c.5,1.2,0,2.6-1.3,3.2-.3.1-.6.2-.9.2Z"></path>
  </g>
  <path class="st0" d="M92.8,4.8h-26.3c-1.3,0-2.4-1.1-2.4-2.4s1.1-2.4,2.4-2.4h26.3c1.3,0,2.4,1.1,2.4,2.4s-1.1,2.4-2.4,2.4Z"></path>
  <path class="st0" d="M88.2,2.7v21.1l-8,17.2c-.2.4-.7.4-.9,0l-8-17.2V2.7h-4.8v21.6c0,.4,0,.7.2,1l8.2,17.7c.9,1.9,2.8,3.1,4.8,3.1s4-1.2,4.8-3.1l8.2-17.7c.1-.3.2-.7.2-1V2.7h-4.8Z"></path>
  <g>
    <path class="st0" d="M56.4,178.3c-.1,0-.3,0-.4,0-1.3-.2-2.2-1.5-1.9-2.8l2.4-13.3c.2-1.3,1.5-2.2,2.8-1.9,1.3.2,2.2,1.5,1.9,2.8l-2.4,13.3c-.2,1.2-1.2,2-2.4,2Z"></path>
    <path class="st0" d="M103,178.3c-1.1,0-2.2-.8-2.4-2l-2.4-13.3c-.2-1.3.6-2.6,1.9-2.8,1.3-.2,2.6.6,2.8,1.9l2.4,13.3c.2,1.3-.6,2.6-1.9,2.8-.1,0-.3,0-.4,0Z"></path>
  </g>
  <path class="st0" d="M113.1,189.5H46.3c-4,0-7.2-3.3-7.2-7.2s3.3-7.2,7.2-7.2h66.7c4,0,7.2,3.3,7.2,7.2s-3.3,7.2-7.2,7.2ZM46.3,179.9c-1.3,0-2.4,1.1-2.4,2.4s1.1,2.4,2.4,2.4h66.7c1.3,0,2.4-1.1,2.4-2.4s-1.1-2.4-2.4-2.4H46.3Z"></path>
  <path class="st0" d="M79.7,25.1c-3.2,0-5.8-2.6-5.8-5.8v-6.5c0-3.2,2.6-5.8,5.8-5.8s5.8,2.6,5.8,5.8v6.5c0,3.2-2.6,5.8-5.8,5.8ZM79.7,11.8c-.5,0-1,.4-1,1v6.5c0,.5.4,1,1,1s1-.4,1-1v-6.5c0-.5-.4-1-1-1Z"></path>
</svg>