<?xml version="1.0"?>
<svg fill="#221f64" stroke="none" id="Layer_1" xmlns="http://www.w3.org/2000/svg" version="1.1" viewBox="0 0 140.8 140.8">
  
  <defs>
    
  </defs>
  <path class="st0" d="M112.5,68h23.5c-4.4,0-16.4,0,0,0-.4-10.2-3.1-19.9-7.6-28.4l-10.1,5.9c-1.1.7-2.6.3-3.2-.9-.7-1.1-.3-2.6.9-3.2l10.1-5.9c-2.6-4.2-5.7-8.1-9.2-11.6-3.5-3.5-7.4-6.6-11.6-9.2l-5.9,10.1c-.7,1.1-2.1,1.5-3.2.9-1.1-.7-1.5-2.1-.9-3.2l5.9-10.1c-8.5-4.5-18.1-7.2-28.4-7.6v11.7c0,1.3-1.1,2.4-2.4,2.4s-2.4-1.1-2.4-2.4V4.8c-10.2.4-19.9,3.1-28.4,7.6l5.9,10.2c.7,1.1.3,2.6-.9,3.2-1.1.7-2.6.3-3.2-.9l-5.9-10.1c-4.2,2.6-8.1,5.7-11.5,9.2-3.5,3.5-6.6,7.4-9.2,11.6l10.1,5.9c1.1.7,1.5,2.1.9,3.2-.7,1.1-2.1,1.5-3.2.9l-10.2-5.9c-4.5,8.5-7.2,18.2-7.6,28.4h5c.2,0,.3,0,.5,0,4.5,0,10.7,0,18,0,.6-10.7,5.2-20.3,12.3-27.4,7.6-7.6,18.2-12.3,29.8-12.3s22.2,4.7,29.8,12.3c7.1,7.1,11.7,16.7,12.3,27.4h0ZM78.4,96.2c-1.3,0-2.4-1.1-2.4-2.4s1.1-2.4,2.4-2.4h4.6c1.3,0,2.4,1.1,2.4,2.4s-1.1,2.4-2.4,2.4h-4.6ZM68.1,96.2c-1.3,0-2.4-1.1-2.4-2.4s1.1-2.4,2.4-2.4h4.6c1.3,0,2.4,1.1,2.4,2.4s-1.1,2.4-2.4,2.4h-4.6ZM57.8,96.2c-1.3,0-2.4-1.1-2.4-2.4s1.1-2.4,2.4-2.4h4.6c1.3,0,2.4,1.1,2.4,2.4s-1.1,2.4-2.4,2.4h-4.6ZM140.8,70.4h0c0,0,0,.2,0,.2v9c0,1.8-.7,3.4-1.9,4.5-1.2,1.2-2.8,1.9-4.5,1.9h-9.3c-.6,2.1-1.3,4.1-2.1,6.1-.8,2-1.8,3.9-2.8,5.8l6.6,6.6c1.2,1.2,1.9,2.9,1.9,4.5h0c0,1.6-.6,3.3-1.9,4.5l-13.1,13.1c-1.2,1.2-2.9,1.9-4.5,1.9h0c-1.6,0-3.3-.6-4.5-1.9l-6.6-6.6c-1.9,1.1-3.8,2-5.8,2.8-2,.8-4,1.5-6.1,2.1v9.3h0c0,1.8-.7,3.4-1.9,4.5-1.2,1.2-2.7,1.9-4.5,1.9h0s0,0,0,0h-18.5s0,0,0,0c-1.8,0-3.4-.7-4.5-1.9s-1.9-2.8-1.9-4.5v-9.3c-2.1-.6-4.1-1.3-6.1-2.1-2-.8-3.9-1.8-5.8-2.8l-6.6,6.6c-1.2,1.2-2.9,1.9-4.5,1.9s-3.3-.6-4.5-1.9l-13.1-13.1c-1.2-1.2-1.9-2.9-1.9-4.5s.6-3.3,1.9-4.5l6.6-6.6c-1.1-1.9-2-3.8-2.8-5.8-.8-2-1.5-4-2.1-6.1H6.4c-1.8,0-3.4-.7-4.5-1.9-1.2-1.2-1.9-2.7-1.9-4.5h0v-9.3c0,0,0-.2,0-.2,0-19.4,7.9-36.9,20.6-49.6C33.4,7.9,51,0,70.4,0s37,7.9,49.8,20.6c12.7,12.7,20.6,30.3,20.6,49.8h0ZM42.6,70.4c0,1.3-1.1,2.4-2.4,2.4s-2.4-1.1-2.4-2.4c0-4.4.9-8.6,2.5-12.5,1.7-4,4.1-7.6,7.1-10.6.9-.9,2.4-.9,3.4,0,.9.9.9,2.4,0,3.4-2.6,2.6-4.7,5.6-6.1,9.1-1.4,3.3-2.1,6.9-2.1,10.7h0ZM56.2,46.5c-1.1.7-2.6.3-3.3-.8-.7-1.1-.3-2.6.8-3.3.5-.3,1.1-.6,1.7-.9.5-.3,1.1-.5,1.7-.8,1.2-.5,2.6,0,3.1,1.2s0,2.6-1.2,3.1c-.5.2-1,.4-1.5.7-.5.2-.9.5-1.4.8h0ZM28.3,72.8H4.8v6.9h0c0,.4.2.8.5,1.2.3.3.7.5,1.1.5h0s11.2,0,11.2,0h0c1.1,0,2,.7,2.3,1.8.6,2.5,1.4,4.9,2.4,7.2,1,2.3,2.1,4.6,3.3,6.7.7.9.6,2.2-.3,3.1l-7.9,7.9c-.3.3-.5.7-.5,1.2s.2.8.5,1.2l13.1,13.1c.3.3.7.5,1.2.5s.8-.2,1.2-.5l7.9-7.9h0c.8-.7,1.9-.9,2.9-.4,2.2,1.3,4.4,2.5,6.8,3.4,2.3.9,4.7,1.7,7.1,2.4,1.1.2,1.9,1.2,1.9,2.3v11.2c0,.4.2.9.5,1.2.3.3.7.5,1.2.5h0s18.5,0,18.5,0h0s0,0,0,0c.4,0,.8-.2,1.1-.5.3-.3.5-.7.5-1.2h0v-11c0-1.1.7-2.2,1.8-2.5,2.5-.6,4.9-1.4,7.2-2.4,2.3-1,4.6-2.1,6.7-3.3.9-.7,2.2-.6,3.1.3l7.9,7.9c.3.3.7.5,1.2.5h0c.4,0,.8-.2,1.2-.5l13.1-13.1c.3-.3.5-.7.5-1.2h0c0-.4-.2-.8-.5-1.2l-7.9-7.9h0c-.8-.8-.9-1.9-.4-2.9,1.3-2.2,2.5-4.4,3.4-6.8.9-2.3,1.7-4.7,2.4-7.1.2-1.1,1.2-1.9,2.3-1.9h11.2c.4,0,.9-.2,1.2-.5.3-.3.5-.7.5-1.2v-6.9h-23.6c-.6,10.7-5.2,20.3-12.3,27.4-7.6,7.6-18.2,12.3-29.8,12.3s-22.2-4.7-29.8-12.3c-7.1-7.1-11.7-16.7-12.3-27.4h0ZM96.8,44c-6.8-6.8-16.1-11-26.4-11s-19.7,4.2-26.4,11c-6.8,6.8-11,16.1-11,26.4s4.2,19.7,11,26.4c6.8,6.8,16.1,11,26.4,11s19.7-4.2,26.4-11c6.8-6.8,11-16.1,11-26.4s-4.2-19.7-11-26.4h0Z"></path>
  <path class="st0" d="M70.4,58.8c.2,0,.5,0,.7,0l39.7-28.4c1.1-.8,2.6-.5,3.3.6.7.9.6,2.2-.2,3l-31.9,36.8c-.1,3-1.4,5.8-3.4,7.8-2.1,2.1-5,3.4-8.2,3.4s-6.1-1.3-8.2-3.4c-2.1-2.1-3.4-5-3.4-8.2s1.3-6.1,3.4-8.2c2.1-2.1,5-3.4,8.2-3.4h0ZM70.4,73.5c-1.7,0-3.1-1.4-3.1-3.1s1.4-3.1,3.1-3.1h0c1.7,0,3.1,1.4,3.1,3.1s-1.4,3.1-3.1,3.1h0ZM76.7,60.7c.7.4,1.3,1,1.9,1.5.8.8,1.5,1.8,2.1,2.8l16.5-19.1-20.5,14.7h0ZM75.2,65.6c-1.2-1.2-2.9-2-4.8-2s-3.6.8-4.8,2c-1.2,1.2-2,2.9-2,4.8s.8,3.6,2,4.8c1.2,1.2,2.9,2,4.8,2s3.6-.8,4.8-2c1.2-1.2,2-2.9,2-4.8s-.8-3.6-2-4.8h0Z"></path>
</svg>