<?xml version="1.0"?>
<svg fill="none" stroke="#221f64" stroke-width="6" stroke-linecap="round" stroke-linejoin="round" id="Layer_1" xmlns="http://www.w3.org/2000/svg" version="1.1" viewBox="0 0 147.9 162.3">
  
  <defs>
    
  </defs>
  <g>
    <path class="st0" d="M144.4,70.6c0,13.7-24.8,54.5-24.8,54.5,0,0-24.8-40.8-24.8-54.5s11.1-24.8,24.8-24.8,24.8,11.1,24.8,24.8Z"></path>
    <circle class="st0" cx="119.6" cy="70.3" r="12.3" transform="translate(31 177) rotate(-80.7)"></circle>
  </g>
  <g>
    <path class="st0" d="M17.8,28.5v47.8c0,5.1,3.7,9.2,8.3,9.2h51.6c4.6,0,8.3-4.1,8.3-8.5V28.1"></path>
    <polyline class="st0" points="4.4 117.8 63.9 117.8 83.8 117.8 98.8 117.8"></polyline>
    <line class="st0" x1="17.8" y1="44.5" x2="86" y2="44.5"></line>
    <line class="st0" x1="11.7" y1="141.7" x2="5.8" y2="158.8"></line>
    <line class="st0" x1="92.2" y1="141.7" x2="98.1" y2="158.8"></line>
    <polyline class="st0" points="7.7 153.2 13.7 153.2 26.6 153.2 95.6 153.2"></polyline>
    <g>
      <line class="st0" x1="30.1" y1="10.5" x2="42.4" y2="24.8"></line>
      <line class="st0" x1="73" y1="10.5" x2="60.7" y2="24.8"></line>
      <path class="st0" d="M19.9,4.6l1.4-.7c.6-.3,1.3-.4,2-.4h56.6c.8,0,1.6.2,2.4.6l1,.5"></path>
    </g>
    <path class="st0" d="M100.3,112.6c-.9,14-12.1,25.1-25.8,25.1H29.3c-14.7,0-26.4-12.8-25.8-28.2l2.5-61.4c.5-12.8,10.6-22.9,22.8-22.9h46.3c10.7,0,19.7,7.7,22.2,18.3"></path>
    <line class="st0" x1="48.3" y1="102.3" x2="54.8" y2="102.3"></line>
  </g>
</svg>