<?xml version="1.0"?>
<svg fill="none" stroke="#221f64" stroke-width="6" stroke-linecap="round" stroke-linejoin="round" id="Layer_1" xmlns="http://www.w3.org/2000/svg" version="1.1" viewBox="0 0 168.1 155">
  
  <defs>
    
  </defs>
  <g>
    <g>
      <path class="st0" d="M22.5,36.3v32.5c0,4.5,3.3,8.2,7.4,8.2h36c4.1,0,7.4-3.7,7.4-7.6v-33.5"></path>
      <line class="st0" x1="5.2" y1="98.9" x2="89.9" y2="98.9"></line>
      <line class="st0" x1="11.7" y1="127.6" x2="3.5" y2="151.5"></line>
      <line class="st0" x1="84" y1="127.6" x2="92.2" y2="151.5"></line>
      <polyline class="st0" points="8.2 137.9 13.6 137.9 25.1 137.9 87.1 137.9"></polyline>
      <g>
        <line class="st0" x1="31.7" y1="13.9" x2="39.3" y2="22.6"></line>
        <line class="st0" x1="63.4" y1="13.7" x2="55.8" y2="22.6"></line>
        <path class="st0" d="M19.1,4.5l1.2-.6c.6-.3,1.2-.4,1.8-.4h50.8c.7,0,1.5.2,2.1.5l.9.5"></path>
      </g>
      <path class="st0" d="M90.9,87.8l.4,11c.6,13.8-10,25.3-23.2,25.3H27.6c-13.2,0-23.7-11.5-23.2-25.3l2.2-55.1c.5-11.5,9.5-20.6,20.5-20.6h41.5c6.1,0,11.6,2.8,15.4,7.3"></path>
    </g>
    <path class="st0" d="M129,8.4c-19.6,0-35.6,15.9-35.6,35.6s1,9.7,2.9,14l-9.9,19.6,20.3-5.9c6.1,4.9,13.8,7.8,22.2,7.8,19.6,0,35.6-15.9,35.6-35.6s-15.9-35.6-35.6-35.6Z"></path>
  </g>
  <text fill="#221f64" stroke="none" font-family="Heebo,Arial,sans-serif" font-weight="700" class="st1" transform="translate(103.3 56.8)"><tspan x="0" y="0">10</tspan></text>
</svg>