<?xml version="1.0"?>
<svg fill="#7b5fd4" stroke="none" id="Layer_1" xmlns="http://www.w3.org/2000/svg" version="1.1" viewBox="0 0 169.9 142.2">
  
  <path d="M46.3,49.3c-1.2-2.7-2.6-5.2-3.4-7.8-2.3-7.3-1-14.2,3.9-20.1,6.2-7.6,14.3-12.7,23.4-16.3,5.8-2.3,11.7-4,17.9-4.6C93.6-.1,99.2,0,104.8,0c7.7,0,15,1.9,21.8,5.3,7.2,3.6,11.7,9.7,14.1,17.2,3.3,10.5-.2,19.3-7.5,27-1.5,1.6-3.2,3-5,4.7,2.1,1,4,2,5.9,2.9,2.8,1.4,5.4,3,7.8,5.2,3.5,3.3,5,7.3,5,11.9,0,2.8-1.2,5.2-2.6,7.8.8.4,1.5.8,2.3,1.2,3.1,1.4,6.4,2.7,9.4,4.3,5,2.8,9.3,6.5,11.9,11.7,3.1,5.9,2.4,11.8-.9,17.5-3.4,6-9,9.8-15,13-7.6,4.1-15.8,6.6-24.2,8.5-5.9,1.3-12,1.6-18,2.7-10.3,1.9-20.8,1.1-31.2,1.1-6.5,0-13-.5-19.5-1.3-5.9-.7-11.7-2.1-17.5-3.3-4.2-.8-8.4-1.6-12.5-2.8-6.5-1.9-13.2-3.7-18.8-7.7-4.6-3.3-8.4-7.5-9.8-13-1.4-5.3-.4-10.5,3.3-14.9,4-4.7,8.7-8.3,15-9.7.4,0,.7-.4,1.2-.7-.3-.5-.5-1-.8-1.3-3.9-3.7-5.5-8.3-5.5-13.4,0-6.2,2.7-11.4,7.9-15.1,5.3-3.8,11.3-6.3,17.7-7.9,2.3-.6,4.6-1.2,7-1.8ZM86.8,134.7h0c2.5,0,5.1,0,7.6,0,6.9.4,13.7-.7,20.4-1.5,5.2-.7,10.2-2.1,15.4-3.2,5.5-1.1,10.7-3,15.7-5.3,5.2-2.4,9.9-5.4,13.5-10,4.2-5.5,3.9-11.5-.8-16.6-4.8-5.3-11.2-7.5-17.8-9.4-1.8-.5-3.6-.2-5.4.9-8.6,4.9-17.9,8-27.6,10-3.2.7-6.4,1.2-9.6,1.7-4.9.7-9.8,1.6-14.7,1.8-8,.3-16,.4-24,0-5.2-.3-10.4-1.3-15.4-2.8-5.4-1.6-10.6-3.9-15.8-6.1-1.6-.6-3-.7-4.6-.3-5.7,1.5-10.2,4.8-13.9,9.2-2.5,3-2.9,6.5-1.5,10.2,1.5,4.1,4.4,7,8.1,9.1,4.4,2.5,9.1,4.1,14.1,5.2,4.4,1,8.7,2.3,13.1,3.1,4.3.9,8.7,1.4,13.1,2,5.4.7,10.8,1.5,16.3,1.8,4.6.3,9.3,0,13.9,0ZM70.7,96.7c7.3-.3,12.6-.5,17.8-.7.8,0,1.7-.1,2.5-.3,3.2-.6,6.3-1.5,9.5-1.9,8-1.1,15.7-3.4,23.2-6.3,3.2-1.2,6.3-2.9,9.3-4.5,3.2-1.7,5.2-4.6,6.4-7.8,1.1-3.1-.5-6.7-4.2-9.3-4.1-2.9-8.8-4.9-13.7-6.2-1.3-.3-2.8-.4-4.1,0-4.1,1.2-8.3,2.2-12.5,2.6-5.2.5-10.4,1.5-15.6,1.6-5.5.1-11.1-.3-16.7-.9-2.7-.3-5.3-1.2-7.9-1.9-3.9-1.1-7.3-3.1-10.6-5.4-.9-.6-1.6-1.1-2.9-.7-2.4.8-4.8,1.5-7.2,1.9-5.6.8-10.8,2.8-15.7,5.3-2.2,1.2-4.1,3.1-5.9,5-2.2,2.4-2.2,9.4.5,12.9,2.2,2.8,4.8,5.2,7.8,7.1,7.9,4.9,16.7,7.1,25.7,8.6,5.3.9,10.7.7,14,.8ZM97.9,6.8c-5.1.6-10.3.8-15.2,1.9-4.9,1.1-9.6,2.9-14.2,5-6.1,2.8-11.8,6.3-16,11.8-2.9,3.7-4,7.9-3.2,12.5,1,5.7,4.6,9.6,9.2,12.4,7.7,4.7,16.1,6.9,25.2,6.8,5.3,0,10.5.1,15.7-1.1,4.4-1,9-1.3,13.3-2.4,6.1-1.7,11.8-4.5,16.1-9.3,4.8-5.3,7.2-11.5,5.5-18.6-2-8.7-8.1-13.5-16.4-15.9-6.5-1.8-13.1-3.1-19.9-3Z"></path>
</svg>